{"title":"Closed Circuit 2013 BRRip XviD AC3-SuperNova [P2PDL]","uid":9392534,"size":1757108669,"categoryP":"video","categoryS":"movies","magnet":"?xt=urn:btih:308e920d77a3f33ba3a2ad6122657db2fb74d4f1&amp;dn=Closed+Circuit+2013+BRRip+XviD+AC3-SuperNova+%5BP2PDL%5D&amp;tr=udp%3A%2F%2Ftracker.openbittorrent.com%3A80&amp;tr=udp%3A%2F%2Fopen.demonii.com%3A1337&amp;tr=udp%3A%2F%2Ftracker.coppersurfer.tk%3A6969&amp;tr=udp%3A%2F%2Fexodus.desync.com%3A6969","seeders":1,"leechers":0,"uploader":"ValidusVyto","files":8,"time":1387911434,"description":"Closed.Circuit.2013.BRRip.XviD.AC3-SuperNova\n\nInfo:\nGeneral\nComplete name                            : Closed.Circuit.2013.BRRip.XviD.AC3-SuperNova.[P2PDL]/Closed Circuit 2013 BRRip XviD AC3-SuperNova.avi\nFormat                                   : AVI\nFormat/Info                              : Audio Video Interleave\nFile size                                : 1.64 GiB\nDuration                                 : 1h 36mn\nOverall bit rate                         : 2 440 Kbps\nWriting application                      : VirtualDubMod 1.5.10.3 | www.virtualdub-fr.org || (build 2550/release)\nWriting library                          : VirtualDubMod build 2550/release\n\nVideo\nID                                       : 0\nFormat                                   : MPEG-4 Visual\nFormat profile                           : Advanced Simple@L5\nFormat settings, BVOP                    : 1\nFormat settings, QPel                    : No\nFormat settings, GMC                     : No warppoints\nFormat settings, Matrix                  : Default (H.263)\nCodec ID                                 : XVID\nCodec ID/Hint                            : XviD\nDuration                                 : 1h 36mn\nBit rate                                 : 1 982 Kbps\nWidth                                    : 720 pixels\nHeight                                   : 304 pixels\nDisplay aspect ratio                     : 2.35:1\nFrame rate                               : 23.976 fps\nColor space                              : YUV\nChroma subsampling                       : 4:2:0\nBit depth                                : 8 bits\nScan type                                : Progressive\nCompression mode                         : Lossy\nBits/(Pixel*Frame)                       : 0.378\nStream size                              : 1.33 GiB (81%)\nWriting library                          : XviD 73\n\nAudio\nID                                       : 1\nFormat                                   : AC-3\nFormat/Info                              : Audio Coding 3\nMode extension                           : CM (complete main)\nFormat settings, Endianness              : Big\nCodec ID                                 : 2000\nDuration                                 : 1h 36mn\nBit rate mode                            : Constant\nBit rate                                 : 448 Kbps\nChannel(s)                               : 6 channels\nChannel positions                        : Front: L C R, Side: L R, LFE\nSampling rate                            : 48.0 KHz\nBit depth                                : 16 bits\nCompression mode                         : Lossy\nStream size                              : 308 MiB (18%)\nAlignment                                : Split accross interleaves\nInterleave, duration                     : 42 ms (1.00 video frame)\nInterleave, preload duration             : 500 ms\n\n\n\n\nScreenshots: &lt;a href=&quot;\nhttp://beeimg.com/images/w23413400422.jpg&quot; rel=&quot;nofollow&quot; target=&quot;_NEW&quot;&gt;\nhttp://beeimg.com/images/w23413400422.jpg&lt;/a&gt; &lt;a href=&quot;\nhttp://beeimg.com/images/u21512446832.jpg&quot; rel=&quot;nofollow&quot; target=&quot;_NEW&quot;&gt;\nhttp://beeimg.com/images/u21512446832.jpg&lt;/a&gt;","torrent":{"xt":"urn:btih:308e920d77a3f33ba3a2ad6122657db2fb74d4f1","amp;dn":"Closed+Circuit+2013+BRRip+XviD+AC3-SuperNova+%5BP2PDL%5D","amp;tr":["udp%3A%2F%2Ftracker.openbittorrent.com%3A80","udp%3A%2F%2Fopen.demonii.com%3A1337","udp%3A%2F%2Ftracker.coppersurfer.tk%3A6969","udp%3A%2F%2Fexodus.desync.com%3A6969"],"infoHash":"308e920d77a3f33ba3a2ad6122657db2fb74d4f1","infoHashBuffer":{"type":"Buffer","data":[48,142,146,13,119,163,243,59,163,162,173,97,34,101,125,178,251,116,212,241]},"announce":[],"urlList":[]}}